<svg version="1.1" xmlns="http://www.w3.org/2000/svg" xmlns:xlink="http://www.w3.org/1999/xlink" x="0px" y="0px"
	 viewBox="0 0 404 68.3" style="enable-background:new 0 0 404 68.3;" xml:space="preserve">
<style type="text/css">
	.st0{fill:#DC0314;}
	.st1{display:none;}
	.st2{display:inline;fill:none;stroke:#E6E7E8;stroke-width:15;stroke-miterlimit:10;}
</style>
<g id="Layer_1">
	<g>
		<g>
			<path class="st0" d="M69.4,19.9c-12.5,0-20.9,7.9-20.9,19.6c0,12.1,7.8,19.6,20.4,19.6c12.8,0,21.1-7.8,21.1-19.7
				C90.1,27.4,82.2,19.9,69.4,19.9z M69.5,52.2c-6.2,0-10.1-4.9-10.1-12.5c0-8,3.9-13,10.2-13c6,0,9.7,4.8,9.7,12.5
				C79.3,47.1,75.4,52.2,69.5,52.2z"/>
			<path class="st0" d="M236.5,20.3c-11.3,0-15.8,4.6-15.8,16v0.9c0,6.9-0.2,14.5-0.4,18.4l-0.1,2.4h11.3l-0.2-2.2
				c-0.2-3.5-0.3-6.8-0.3-10.1v-1.9l0.1-5.5v-2c0.2-3.9,1.5-8.7,7-8.7c2,0,4.6,0.6,5.3,0.9l0.6,0.3l1.1-7.4l-0.4-0.1
				C241.5,20.5,238.3,20.3,236.5,20.3z"/>
			<path class="st0" d="M162.4,9.6c2.6,0,3.8,0,7.3,1l0.5,0.1l1-7.3l-0.4-0.1c-2.8-0.9-7.9-1.3-9.9-1.3c-9.6,0-15.1,5.6-15.6,15.7
				l0,6.9l0.1,13.2l-0.2,16.3l-0.2,9.9v2.3H156V64l-0.3-9.6l-0.1-10.5v-8.5c0,0,0.1-6.1,0.1-7.8h10.7l1-7.3c0,0-10.8,0-11.7,0
				c0-0.6,0-2.5,0-2.5C156.1,12.3,158.3,9.6,162.4,9.6z"/>
			<path class="st0" d="M191,19.9c-12.5,0-20.9,7.9-20.9,19.6c0,12.1,7.8,19.6,20.4,19.6c12.8,0,21.1-7.8,21.1-19.7
				C211.7,27.4,203.7,19.9,191,19.9z M191,52.2c-6.2,0-10.1-4.9-10.1-12.5c0-8,3.9-13,10.2-13c6,0,9.7,4.8,9.7,12.5
				C200.8,47.1,197,52.2,191,52.2z"/>
			<path class="st0" d="M134.2,48.7v-6.2l0.1-6.3c0-10-5.7-16-15.2-16h-6.3c-9.5,0-15.2,6-15.2,16l0,2.3c0,9.8,0,12.1-0.4,19.1
				l0,0.5h11.3l-0.1-2.9l-0.3-7.9l-0.2-7.8v-0.9c0-4.3,0.3-5.5,1.2-7.3c1.1-2.2,3.8-3.7,6.9-3.7c3.1,0,5.8,1.4,6.9,3.7
				c0.9,1.8,1.2,3.1,1.2,7.3v0.9l-0.2,7.7l-0.3,7.9l-0.1,2.9h11l-0.1-2.6L134.2,48.7z"/>
			<path class="st0" d="M357.6,48.7l0-2V44l0.2-7.8c0-6.8-1.6-10.6-5.6-13.3c-2.5-1.7-6.2-2.7-10.2-2.7c-5.7,0-10.4,1.8-13.5,4.9
				c-2.7-3.1-6.6-4.8-11.6-4.8h-6.2c-9.5,0-15.2,6-15.2,16l0,2.3c0,9.8,0,12.1-0.4,19.1l0,0.5h11.2l-0.1-2.9l-0.3-7.9l-0.2-7.8v-0.9
				c0-4.3,0.3-5.5,1.2-7.3c1.1-2.2,3.8-3.7,6.9-3.7c3.1,0,5.8,1.4,6.8,3.7c0.9,1.8,1.2,3.1,1.2,7.3v0.9l-0.2,7.7l-0.3,7.9l-0.1,2.9
				h11l-0.1-2.6l-0.1-6.7l0-6.2l0.1-6.9c0.2-1.7,0.5-2.6,1-3.8c0.5-1,1.1-1.9,2-2.6c1.2-1.1,3-1.8,5-1.8c3.2,0,6,1.9,6.8,4.7
				c0.4,1.5,0.5,2.9,0.5,8c0,5.9-0.1,9.9-0.5,15.6l-0.2,1.9l0,0.5h11.3l-0.1-2.1L357.6,48.7z"/>
			<path class="st0" d="M402,34.1l0-0.8c0-6-1.9-9.3-6.6-11.3c-2.8-1.2-5.9-1.8-10.1-1.8c-4.9,0-10.4,0.8-14.5,2.1l-0.4,0.1l1.1,7.4
				l0.5-0.2c4-1.6,7.9-2.5,11.5-2.5c6,0,8.4,2.2,8.4,7.5c0,0,0,0.5-0.1,0.9c-8.4-0.4-14.7,0.1-18.2,1.6c-4.9,2.1-7.4,5.5-7.4,9.9
				c0,4.6,3,8.8,7.5,10.8c5.1,2.2,12.4,1.6,15.3,1.3c2.4-0.3,10.3-1.7,12.1-7.8C402.1,48.6,402,37.7,402,34.1z M392,42.7
				c0,3.5-0.1,4.7-0.8,6.2c-0.4,0.8-1.2,1.6-2.2,2c-1.9,1-3.5,1.2-5.5,1.2c-2.1,0-4.2-0.8-5.4-2c-1.5-1.5-1.3-3.9-0.3-5.3
				c1.4-2.2,4.9-3.1,11.9-3.1c0,0,1.8,0,2.4,0.1C392,42.1,392,42.7,392,42.7z"/>
			<path class="st0" d="M285.2,33.3c0-6-1.9-9.3-6.6-11.3c-2.8-1.2-5.9-1.8-10.1-1.8c-4.9,0-10.4,0.8-14.5,2.1l-0.4,0.1l1.1,7.4
				l0.5-0.2c4-1.6,7.9-2.5,11.5-2.5c6,0,8.4,2.2,8.4,7.5c0,0,0,0.5-0.1,0.9c-8.4-0.4-14.7,0.1-18.2,1.6c-4.9,2.1-7.4,5.5-7.4,9.9
				c0,4.6,3,8.8,7.5,10.8c5.1,2.2,12.4,1.6,15.3,1.3c2.4-0.3,10.3-1.7,12.1-7.8c0.8-2.7,0.7-13.6,0.7-17.2L285.2,33.3z M275.3,42.7
				c0,3.5-0.1,4.7-0.8,6.2c-0.4,0.8-1.2,1.5-2.2,2c-1.9,1-3.5,1.2-5.5,1.2c-2.1,0-4.2-0.8-5.4-2c-1.5-1.5-1.3-3.9-0.3-5.3
				c1.4-2.2,4.9-3.1,11.9-3.1c0,0,1.8,0,2.4,0.1C275.3,42.2,275.3,42.7,275.3,42.7z"/>
			<path class="st0" d="M41.3,50.3c-2.1,0.5-4.1,0.7-5.8,0.8C23,51.5,16,44.6,15.6,31.8C15.2,18.7,22.2,10.4,34,10
				c4.9-0.2,9.8,0.9,15,3.2l0.5,0.2v-9l-0.1,0C44.1,2.7,38.3,2,32.2,2.2c-9.8,0.3-17.7,3.5-23.1,9.1C4.2,16.5,1.8,23.7,2,32.1
				c0.2,8,3,14.7,7.9,19.3c5.5,5.2,13.7,7.8,23.7,7.5c3.6-0.1,7-0.5,10.4-1.2l0.5-0.1l-2.9-7.3L41.3,50.3z"/>
		</g>
	</g>
</g>
<g id="Layer_2" class="st1">
	<line class="st2" x1="-83.7" y1="403.6" x2="488" y2="403.6"/>
</g>
</svg>
